<svg width="23" height="23" viewBox="0 0 23 23" fill="none" xmlns="http://www.w3.org/2000/svg">
<path id="Vector" d="M11.192 0.00012207C8.15475 0.00012207 7.77282 0.014112 6.57948 0.0672739C5.38614 0.123234 4.57332 0.310699 3.86123 0.587701C3.1143 0.868646 2.43774 1.30934 1.87885 1.87897C1.30957 2.43815 0.868927 3.11462 0.587579 3.86135C0.310577 4.57204 0.121713 5.38626 0.0671518 6.57541C0.01399 7.77155 0 8.15207 0 11.1935C0 14.2321 0.01399 14.6126 0.0671518 15.806C0.123112 16.9979 0.310577 17.8107 0.587579 18.5228C0.874373 19.2587 1.2563 19.8827 1.87885 20.5052C2.50001 21.1278 3.12396 21.5111 3.85983 21.7965C4.57332 22.0735 5.38474 22.2624 6.57668 22.3169C7.77143 22.3701 8.15195 22.3841 11.192 22.3841C14.232 22.3841 14.6111 22.3701 15.8059 22.3169C16.9964 22.261 17.812 22.0735 18.5241 21.7965C19.2706 21.5154 19.9466 21.0747 20.5051 20.5052C21.1276 19.8827 21.5096 19.2587 21.7964 18.5228C22.072 17.8107 22.2608 16.9979 22.3168 15.806C22.37 14.6126 22.3839 14.2321 22.3839 11.1921C22.3839 8.15207 22.37 7.77155 22.3168 6.57681C22.2608 5.38626 22.072 4.57204 21.7964 3.86135C21.5151 3.1146 21.0744 2.43812 20.5051 1.87897C19.9464 1.30913 19.2698 0.868403 18.5227 0.587701C17.8092 0.310699 16.995 0.121835 15.8045 0.0672739C14.6097 0.014112 14.2306 0.00012207 11.1892 0.00012207H11.1934H11.192ZM10.1889 2.01747H11.1934C14.1816 2.01747 14.5356 2.02727 15.7149 2.08183C16.8061 2.13079 17.3993 2.31406 17.7938 2.46655C18.3157 2.66941 18.6892 2.91283 19.0809 3.30455C19.4726 3.69627 19.7147 4.0684 19.9175 4.59163C20.0714 4.98475 20.2533 5.57792 20.3022 6.66914C20.3568 7.84849 20.368 8.20244 20.368 11.1893C20.368 14.1762 20.3568 14.5315 20.3022 15.7109C20.2533 16.8021 20.07 17.3938 19.9175 17.7884C19.7381 18.2743 19.4517 18.7137 19.0795 19.074C18.6878 19.4658 18.3157 19.7078 17.7924 19.9106C17.4007 20.0645 16.8075 20.2464 15.7149 20.2968C14.5356 20.3499 14.1816 20.3625 11.1934 20.3625C8.20511 20.3625 7.84977 20.3499 6.67042 20.2968C5.5792 20.2464 4.98742 20.0645 4.59291 19.9106C4.10675 19.7315 3.66695 19.4456 3.30583 19.074C2.93335 18.7131 2.64651 18.2733 2.46643 17.787C2.31394 17.3938 2.13067 16.8007 2.08171 15.7095C2.02854 14.5301 2.01735 14.1762 2.01735 11.1865C2.01735 8.19824 2.02854 7.84569 2.08171 6.66634C2.13207 5.57512 2.31394 4.98195 2.46783 4.58743C2.67068 4.06561 2.91411 3.69207 3.30583 3.30035C3.69755 2.90864 4.06968 2.66661 4.59291 2.46375C4.98742 2.30987 5.5792 2.128 6.67042 2.07763C7.70287 2.03007 8.10299 2.01608 10.1889 2.01468V2.01747ZM17.1671 3.87534C16.9907 3.87534 16.8161 3.91008 16.6531 3.97758C16.4902 4.04507 16.3421 4.144 16.2174 4.26871C16.0927 4.39342 15.9938 4.54148 15.9263 4.70442C15.8588 4.86737 15.824 5.04201 15.824 5.21838C15.824 5.39475 15.8588 5.56939 15.9263 5.73234C15.9938 5.89528 16.0927 6.04334 16.2174 6.16805C16.3421 6.29276 16.4902 6.39169 16.6531 6.45918C16.8161 6.52668 16.9907 6.56142 17.1671 6.56142C17.5233 6.56142 17.8649 6.41992 18.1168 6.16805C18.3686 5.91618 18.5101 5.57457 18.5101 5.21838C18.5101 4.86218 18.3686 4.52058 18.1168 4.26871C17.8649 4.01684 17.5233 3.87534 17.1671 3.87534ZM11.1934 5.44502C10.431 5.43312 9.67391 5.573 8.96614 5.85652C8.25836 6.14003 7.61406 6.56151 7.07074 7.09642C6.52742 7.63133 6.09594 8.26898 5.80142 8.97225C5.5069 9.67552 5.35522 10.4303 5.35522 11.1928C5.35522 11.9552 5.5069 12.7101 5.80142 13.4133C6.09594 14.1166 6.52742 14.7543 7.07074 15.2892C7.61406 15.8241 8.25836 16.2456 8.96614 16.5291C9.67391 16.8126 10.431 16.9525 11.1934 16.9406C12.7022 16.917 14.1414 16.3011 15.2001 15.2258C16.2588 14.1504 16.8522 12.7019 16.8522 11.1928C16.8522 9.68373 16.2588 8.23519 15.2001 7.15984C14.1414 6.08448 12.7022 5.46856 11.1934 5.44502ZM11.1934 7.46097C12.1829 7.46097 13.132 7.85407 13.8317 8.55379C14.5314 9.25351 14.9245 10.2025 14.9245 11.1921C14.9245 12.1816 14.5314 13.1307 13.8317 13.8304C13.132 14.5301 12.1829 14.9232 11.1934 14.9232C10.2038 14.9232 9.25479 14.5301 8.55507 13.8304C7.85535 13.1307 7.46225 12.1816 7.46225 11.1921C7.46225 10.2025 7.85535 9.25351 8.55507 8.55379C9.25479 7.85407 10.2038 7.46097 11.1934 7.46097Z" fill="white"/>
</svg>
