<svg width="15" height="15" viewBox="0 0 15 15" fill="none" xmlns="http://www.w3.org/2000/svg">
<path id="Vector" d="M10.9202 9.53084C10.8668 9.47688 10.8527 9.39227 10.8961 9.33006C11.7137 8.15802 12.076 6.7261 11.9119 5.30338C11.7426 3.83523 11.0252 2.48515 9.90319 1.52324C8.7812 0.561332 7.33738 0.058533 5.8606 0.115436C4.38381 0.172339 2.98297 0.784748 1.93832 1.83014C0.893674 2.87553 0.282267 4.27681 0.226421 5.75364C0.170575 7.23046 0.674407 8.67392 1.63712 9.79522C2.59983 10.9165 3.95042 11.633 5.41869 11.8012C6.88678 11.9695 8.36427 11.5773 9.55562 10.7031C9.55576 10.703 9.55569 10.7028 9.55552 10.7028C9.55537 10.7028 9.55529 10.7029 9.55537 10.7031C9.58238 10.739 9.61118 10.7732 9.64357 10.8065L13.117 14.2799C13.2861 14.4492 13.5156 14.5443 13.7549 14.5444C13.9942 14.5445 14.2238 14.4495 14.3931 14.2803C14.5624 14.1112 14.6575 13.8817 14.6576 13.6424C14.6577 13.4031 14.5627 13.1735 14.3935 13.0042L10.9202 9.53084ZM11.0492 5.97356C11.0492 6.62517 10.9208 7.27041 10.6715 7.87242C10.4221 8.47444 10.0566 9.02144 9.59584 9.4822C9.13507 9.94296 8.58807 10.3085 7.98606 10.5578C7.38404 10.8072 6.73881 10.9355 6.08719 10.9355C5.43558 10.9355 4.79034 10.8072 4.18833 10.5578C3.58631 10.3085 3.03931 9.94296 2.57854 9.4822C2.11778 9.02144 1.75229 8.47444 1.50292 7.87242C1.25356 7.27041 1.12522 6.62517 1.12522 5.97356C1.12522 4.65756 1.64799 3.39547 2.57854 2.46492C3.5091 1.53437 4.77119 1.01159 6.08719 1.01159C7.40319 1.01159 8.66529 1.53437 9.59584 2.46492C10.5264 3.39547 11.0492 4.65756 11.0492 5.97356Z" fill="#CC0000"/>
</svg>
