<svg width="28" height="23" viewBox="0 0 28 23" fill="none" xmlns="http://www.w3.org/2000/svg">
<g id="Logo_1_">
<path id="white_background" d="M24.437 5.66886C24.4535 5.90755 24.4535 6.14623 24.4535 6.38711C24.4535 13.727 18.8767 22.192 8.67917 22.192V22.1876C5.66681 22.192 2.71701 21.3275 0.181091 19.6974C0.619114 19.7502 1.05933 19.7766 1.50065 19.7777C3.99705 19.7799 6.42209 18.9406 8.38606 17.3952C6.01371 17.3501 3.93338 15.8003 3.20663 13.5378C4.03767 13.6984 4.89395 13.6654 5.70962 13.4421C3.1232 12.9185 1.26243 10.6416 1.26243 7.99741C1.26243 7.97321 1.26243 7.95012 1.26243 7.92702C2.03308 8.35709 2.89595 8.59578 3.77859 8.62217C1.34257 6.99098 0.591669 3.74398 2.06272 1.20534C4.87749 4.67562 9.03047 6.78529 13.4886 7.00858C13.0418 5.0793 13.6522 3.05762 15.0925 1.70141C17.3255 -0.401657 20.8373 -0.293864 22.9363 1.94229C24.1779 1.69701 25.368 1.24054 26.457 0.59378C26.0431 1.8796 25.1769 2.97183 24.0199 3.66589C25.1188 3.53609 26.1924 3.24131 27.2035 2.79144C26.4592 3.90897 25.5216 4.88241 24.437 5.66886Z" fill="white"/>
</g>
</svg>
