<svg width="27" height="19" viewBox="0 0 27 19" fill="none" xmlns="http://www.w3.org/2000/svg">
<path id="Vector" d="M13.3656 0.130981H13.5091C14.8345 0.135819 21.5502 0.184192 23.361 0.671144C23.9084 0.819759 24.4072 1.10944 24.8076 1.51123C25.2079 1.91302 25.4959 2.41286 25.6425 2.96079C25.8054 3.57351 25.9199 4.38456 25.9973 5.22141L26.0134 5.3891L26.0489 5.80833L26.0618 5.97602C26.1666 7.44978 26.1795 8.83001 26.1811 9.13153V9.25247C26.1795 9.56528 26.165 11.039 26.0489 12.5741L26.036 12.7434L26.0215 12.9111C25.9408 13.8334 25.8215 14.7492 25.6425 15.4232C25.4963 15.9714 25.2085 16.4714 24.8081 16.8733C24.4076 17.2752 23.9086 17.5647 23.361 17.7129C21.4906 18.2159 14.3814 18.2514 13.3962 18.253H13.1672C12.669 18.253 10.6083 18.2433 8.44767 18.1692L8.17355 18.1595L8.03327 18.153L7.75755 18.1418L7.48182 18.1305C5.69204 18.0515 3.98771 17.9241 3.20246 17.7112C2.65502 17.5632 2.1561 17.2739 1.75567 16.8724C1.35524 16.4708 1.06736 15.9711 0.920878 15.4232C0.741899 14.7508 0.62258 13.8334 0.541959 12.9111L0.52906 12.7418L0.51616 12.5741C0.436583 11.4815 0.392487 10.3866 0.383942 9.29116L0.383942 9.09284C0.387166 8.74616 0.400066 7.54813 0.487137 6.22594L0.498424 6.05987L0.503261 5.97602L0.51616 5.80833L0.551634 5.3891L0.567758 5.22141C0.645154 4.38456 0.759636 3.57189 0.922491 2.96079C1.06873 2.41264 1.35649 1.91257 1.75694 1.5107C2.15739 1.10884 2.65644 0.819313 3.20407 0.671144C3.98932 0.461529 5.69365 0.332534 7.48344 0.251913L7.75755 0.240626L8.03489 0.230952L8.17355 0.226115L8.44928 0.214828C9.98383 0.165447 11.519 0.138032 13.0544 0.132594H13.3656V0.130981ZM10.7034 5.30686V13.0755L17.4063 9.19281L10.7034 5.30686Z" fill="white"/>
</svg>
